<svg width="20" height="20" viewBox="0 0 20 20" fill="none" xmlns="http://www.w3.org/2000/svg">
<path d="M20 8L12.6667 7.33333L10 0L7.33333 7.33333L0 8L6 12.6667L4 20L10 15.3333L16 20L14 12.6667L20 8ZM14.8307 18.246L10.4093 14.807L10 14.4887L9.59067 14.807L5.16933 18.246L6.643 12.8423L6.76 12.4133L6.40933 12.1407L1.743 8.511L7.394 7.99733L7.81567 7.959L7.96033 7.56133L10 1.95067L12.0403 7.561L12.185 7.95867L12.6067 7.997L18.2577 8.51067L13.591 12.1403L13.24 12.4133L13.357 12.8423L14.8307 18.246Z" fill="white"/>
</svg>
