<svg width="70" height="50" viewBox="0 0 70 50" fill="none" xmlns="http://www.w3.org/2000/svg">
<path d="M69.4429 24.0753L46.7417 1.37408C46.0039 0.636293 44.8045 0.636293 44.0668 1.37408C43.329 2.11187 43.329 3.31125 44.0668 4.04904L63.5368 23.5191L1.89176 23.5191C0.847509 23.5191 -1.12047e-06 24.3666 -1.07483e-06 25.4108C-1.02918e-06 26.4551 0.847509 27.3026 1.89176 27.3026L63.5368 27.3026L44.0668 46.7726C43.329 47.5104 43.329 48.7098 44.0668 49.4476C44.4375 49.8184 44.9218 50 45.4061 50C45.8904 50 46.3747 49.8146 46.7455 49.4476L69.4467 26.7464C70.1844 26.0086 70.1844 24.8093 69.4467 24.0715L69.4429 24.0753Z" fill="white"/>
</svg>
